Coordinates
version=1
nRows=13
nColumns=18
inDegrees=yes

Units are S.I. units (second, meters, Newtons, ...)
If the header above contains a line with 'inDegrees', this indicates whether rotational values are in degrees (yes) or radians (no).

endheader
time	TH_y	TH_x	TH_z	TH_x_trans	TH_y_trans	TH_z_trans	SC_y	SC_z	SC_x	AC_y	AC_z	AC_x	GH_y	GH_z	GH_yy	EL_x	PS_y
      0.00000000	    -63.68455451	    -27.17857056	    -19.42934953	      1.34740376	      1.29414401	     -0.32985621	    -13.65423953	     -9.34550914	     -9.99680889	     78.93665448	     -5.94038154	      0.26205665	    -51.42770334	     52.40300697	    -17.16220715	     53.12750181	    118.66675038
      0.01000000	    -63.47847968	    -26.78205184	    -19.08969621	      1.34227661	      1.29622502	     -0.33216155	    -13.47182386	    -11.27286811	    -11.01164818	     78.54628226	     -7.40626947	      3.18938741	    -53.40315242	     57.36369921	    -14.36277230	     53.64318593	    117.61660520
      0.02000000	    -63.34360214	    -26.16803734	    -18.70163037	      1.33623078	      1.29820874	     -0.33423327	    -13.55965403	    -11.15548687	    -11.47236349	     78.63987903	     -7.86989136	      3.43684161	    -53.37435821	     56.96776059	    -14.13813675	     53.28228173	    117.62786193
      0.03000000	    -62.63440679	    -26.12267141	    -18.43043878	      1.33236233	      1.30053546	     -0.33725048	    -14.26476769	    -10.76076030	    -11.20576711	     79.00543070	     -7.38631146	      0.29102193	    -51.82037593	     52.76489301	    -15.99627280	     52.62167647	    118.60111107
      0.04000000	    -63.23395498	    -25.42409462	    -18.02223318	      1.32522312	      1.30253249	     -0.33967976	    -13.37607342	    -10.29129502	    -11.79852555	     78.65806404	     -7.90738813	      0.59616194	    -51.96670810	     52.40777909	    -15.67940992	     52.60767883	    118.55095362
      0.05000000	    -62.49527305	    -25.30352415	    -17.81672105	      1.32085517	      1.30458960	     -0.34219663	    -14.41522548	     -9.67472801	    -11.41527629	     79.63363793	     -7.36549210	     -1.70415420	    -50.36807685	     48.65479208	    -17.43612263	     51.43476382	    118.80429688
      0.06000000	    -63.94711181	    -24.03084084	    -17.52985856	      1.31120102	      1.30599484	     -0.34328060	    -13.00572118	     -8.96040166	    -12.63436366	     79.14965272	     -8.62587620	      1.78585906	    -51.48677708	     51.72349830	    -15.27870379	     51.07872378	    118.71422980
      0.07000000	    -63.65436169	    -24.05065485	    -17.08547644	      1.30610757	      1.30805132	     -0.34669341	    -13.18194012	     -8.80315445	    -12.35662973	     79.47249716	     -8.22363888	     -0.40566371	    -50.40254989	     48.71423296	    -16.59938254	     50.54531276	    118.87369650
      0.08000000	    -63.62655513	    -23.39020766	    -16.68786209	      1.29901069	      1.30981452	     -0.34929353	    -13.17352451	     -8.70650471	    -12.66587310	     79.49973905	     -8.53205517	     -0.13917090	    -50.36002038	     48.36544783	    -16.49856448	     50.07942394	    119.36911038
      0.09000000	    -63.68664901	    -23.33567812	    -16.32237233	      1.29313939	      1.31156516	     -0.35256622	    -13.04478561	     -8.15206037	    -12.38868266	     79.91984983	     -8.09856207	     -2.04935449	    -49.26811405	     45.34860081	    -17.84304051	     49.51992152	    120.04342142
      0.10000000	    -63.69957449	    -22.99793706	    -15.90467859	      1.28650281	      1.31332418	     -0.35559331	    -12.93222088	     -8.12032981	    -12.53733250	     80.07705483	     -8.22896823	     -2.32632156	    -48.97468979	     44.54159514	    -17.97899749	     49.07864143	    118.95184778
      0.11000000	    -63.63021314	    -22.65939091	    -15.51487626	      1.27959571	      1.31497254	     -0.35893763	    -12.94080970	     -7.73707033	    -12.30498517	     80.60748863	     -7.89601542	     -3.93793093	    -48.07419174	     41.97597571	    -19.13261056	     48.41210747	    119.02824217
      0.12000000	    -63.47502868	    -22.10382713	    -15.10098016	      1.27197255	      1.31647613	     -0.36198589	    -13.10351768	     -7.90003748	    -12.56888136	     80.77261396	     -8.18668907	     -3.89127742	    -47.97264850	     41.91958268	    -18.87654967	     47.86166129	    117.98457493
